<svg width="46" height="25" viewBox="0 0 46 25" fill="none" xmlns="http://www.w3.org/2000/svg">
<path d="M33.296 0.913649C32.6196 1.68532 32.6222 2.93347 33.3018 3.7015L39.3922 10.5838L2.62515 10.5838C1.66629 10.5838 0.889038 11.4664 0.889038 12.5551C0.889038 13.6439 1.66629 14.5265 2.62515 14.5265L39.3923 14.5264L33.3017 21.4087C32.6221 22.1768 32.6195 23.4249 33.2959 24.1966C33.9724 24.9684 35.0716 24.9712 35.7512 24.2033L44.8227 13.9524C44.8233 13.9518 44.8237 13.9511 44.8243 13.9505C45.5021 13.1825 45.5043 11.9303 44.8243 11.1597C44.8237 11.1591 44.8233 11.1584 44.8228 11.1578L35.7513 0.906947C35.0717 0.139115 33.9724 0.141776 33.296 0.913649Z" fill="white"/>
</svg>
