<svg width="27" height="27" viewBox="0 0 27 27" fill="none" xmlns="http://www.w3.org/2000/svg">
<path d="M13.323 6.58515C11.5069 6.58515 9.7653 7.30657 8.48118 8.59069C7.19706 9.87481 6.47564 11.6165 6.47564 13.4325C6.47564 15.2485 7.19706 16.9901 8.48118 18.2743C9.7653 19.5584 11.5069 20.2798 13.323 20.2798C15.139 20.2798 16.8806 19.5584 18.1648 18.2743C19.4489 16.9901 20.1703 15.2485 20.1703 13.4325C20.1703 11.6165 19.4489 9.87481 18.1648 8.59069C16.8806 7.30657 15.139 6.58515 13.323 6.58515ZM13.323 17.8794C12.1432 17.8794 11.0117 17.4107 10.1775 16.5765C9.34325 15.7423 8.87458 14.6108 8.87458 13.431C8.87458 12.2512 9.34325 11.1197 10.1775 10.2855C11.0117 9.45128 12.1432 8.98261 13.323 8.98261C14.5028 8.98261 15.6342 9.45128 16.4685 10.2855C17.3027 11.1197 17.7714 12.2512 17.7714 13.431C17.7714 14.6108 17.3027 15.7423 16.4685 16.5765C15.6342 17.4107 14.5028 17.8794 13.323 17.8794Z" fill="white"/>
<path d="M20.4415 7.92974C21.3231 7.92974 22.0378 7.21504 22.0378 6.33341C22.0378 5.45178 21.3231 4.73708 20.4415 4.73708C19.5598 4.73708 18.8451 5.45178 18.8451 6.33341C18.8451 7.21504 19.5598 7.92974 20.4415 7.92974Z" fill="white"/>
<path d="M25.9603 4.71028C25.6175 3.82501 25.0936 3.02108 24.4222 2.34993C23.7508 1.67879 22.9467 1.15522 22.0613 0.81275C21.0252 0.423822 19.9307 0.213522 18.8242 0.190804C17.3982 0.12861 16.9465 0.11084 13.3304 0.11084C9.7142 0.11084 9.2507 0.11084 7.83652 0.190804C6.73092 0.21236 5.63713 0.422703 4.6024 0.81275C3.71677 1.15482 2.91243 1.67825 2.24098 2.34944C1.56953 3.02064 1.0458 3.82478 0.703391 4.71028C0.314386 5.74628 0.104568 6.84094 0.0829261 7.94736C0.0192507 9.37191 0 9.82356 0 13.4412C0 17.0574 -8.27842e-09 17.5179 0.0829261 18.9351C0.105138 20.0427 0.313934 21.1356 0.703391 22.1736C1.04676 23.0588 1.571 23.8626 2.24261 24.5337C2.91422 25.2048 3.71844 25.7285 4.60388 26.0711C5.63666 26.4757 6.73089 26.7011 7.83948 26.7375C9.26551 26.7997 9.71716 26.819 13.3333 26.819C16.9495 26.819 17.413 26.819 18.8272 26.7375C19.9335 26.715 21.028 26.5052 22.0643 26.1171C22.9494 25.7738 23.7533 25.2498 24.4247 24.5784C25.096 23.9071 25.62 23.1032 25.9633 22.2181C26.3527 21.1815 26.5615 20.0886 26.5837 18.981C26.6474 17.5564 26.6667 17.1048 26.6667 13.4871C26.6667 9.86947 26.6667 9.41041 26.5837 7.99326C26.5665 6.8712 26.3556 5.76055 25.9603 4.71028ZM24.1567 18.8255C24.1471 19.6789 23.9914 20.5243 23.6961 21.3251C23.4738 21.901 23.1333 22.4239 22.6967 22.8603C22.2601 23.2966 21.7369 23.6368 21.161 23.8588C20.3691 24.1527 19.5326 24.3084 18.688 24.3193C17.2812 24.3845 16.8843 24.4008 13.2771 24.4008C9.66682 24.4008 9.29809 24.4008 7.86465 24.3193C7.02048 24.309 6.1844 24.1532 5.39316 23.8588C4.81517 23.6381 4.28995 23.2986 3.85146 22.8621C3.41297 22.4257 3.07098 21.9021 2.84762 21.3251C2.55656 20.5329 2.40088 19.6975 2.38709 18.8536C2.32341 17.4468 2.3086 17.05 2.3086 13.4427C2.3086 9.83393 2.3086 9.4652 2.38709 8.03028C2.39666 7.17736 2.55243 6.3324 2.84762 5.53213C3.29927 4.36376 4.22479 3.44417 5.39316 2.99696C6.18479 2.70397 7.02062 2.54822 7.86465 2.53643C9.27291 2.47275 9.6683 2.45498 13.2771 2.45498C16.8858 2.45498 17.256 2.45498 18.688 2.53643C19.5327 2.54659 20.3693 2.70239 21.161 2.99696C21.7369 3.21949 22.2599 3.55998 22.6965 3.99656C23.1331 4.43315 23.4736 4.9562 23.6961 5.53213C23.9872 6.3243 24.1429 7.1598 24.1567 8.00363C24.2203 9.41189 24.2366 9.80727 24.2366 13.416C24.2366 17.0233 24.2366 17.4113 24.173 18.827L24.1567 18.8255Z" fill="white"/>
</svg>
