<svg width="30" height="21" viewBox="0 0 30 21" fill="none" xmlns="http://www.w3.org/2000/svg">
<path d="M28.5234 3.69963C28.359 3.09644 28.0377 2.54634 27.5915 2.1041C27.1452 1.66185 26.5897 1.34288 25.9801 1.17894C23.7197 0.565178 14.6766 0.555187 14.6766 0.555187C14.6766 0.555187 5.63501 0.545195 3.37316 1.13183C2.76393 1.30332 2.20951 1.62681 1.76312 2.07122C1.31673 2.51564 0.99337 3.06606 0.824078 3.66966C0.227944 5.90488 0.22217 10.5409 0.22217 10.5409C0.22217 10.5409 0.216396 15.1998 0.8082 17.4121C1.14019 18.6354 2.1145 19.6017 3.35296 19.9314C5.63645 20.5452 14.655 20.5552 14.655 20.5552C14.655 20.5552 23.698 20.5652 25.9584 19.9799C26.5682 19.8163 27.1243 19.4981 27.5717 19.0567C28.019 18.6154 28.3421 18.0662 28.5089 17.4635C29.1065 15.2297 29.1108 10.5951 29.1108 10.5951C29.1108 10.5951 29.1397 5.93486 28.5234 3.69963ZM11.784 14.8358L11.7912 6.27171L19.3071 10.5609L11.784 14.8358Z" fill="white"/>
</svg>
